# xmcd CD database file
#
# Track frame offsets:
#	150
#	3410
#	7427
#	16767
#	27075
#	35050
#	42364
#	48160
#	55807
#	65475
#	75510
#	84067
#	91767
#	99025
#	114950
#	122327
#	128695
#	138315
#	142770
#	158952
#
# Disc length: 2305 seconds
#
# Revision: 0
# Processed by: cddbd v1.5.2PL0 Copyright (c) Steve Scherf et al.
# Submitted via: CDex 1.70beta2
#
DISCID=e308ff14
DTITLE=Various Artist - Taas kaikki kauniit muistot... CD3
DYEAR=1994
DGENRE=Joululaulu
TTITLE0=Koska meillä on Joulu - Tapiolan yhteiskoulun kuoro
TTITLE1=Joulu on tullut taas - Polyteknikkojen kuoro
TTITLE2=Kuuraparta - Kamarikuoro Melos
TTITLE3=Joulupukki, joulupukki - Candomino-kuoro
TTITLE4=Joulupukki verraton - Ryhmä Tapiolan kuorolaisia
TTITLE5=Reippahasti käypi askeleet - Candomino-kuoro
TTITLE6=Hei, tonttu-ukot hyppikää - Polyteknikkojen kuoro
TTITLE7=Joulupuu on rakennettu - Candomino-kuoro
TTITLE8=Oi kuusipuu - Tikkurilan laulajat
TTITLE9=Tonttujen Jouluyö - Kamarikuoro Melos
TTITLE10=Sinivuorten yö - Polyteknikkojen kuoro
TTITLE11=No, onkos tullut kesä - Tapiolan yhteiskoulun kuoro
TTITLE12=Juhla se on verraton - Polyteknikkojen kuoro
TTITLE13=Tule Joulu kultainen - Kamarikuoro Melos
TTITLE14=Ratiriti ralla - Candomino-kuoro
TTITLE15=Joulukirkkoon - Tapiolan yhteiskoulun kuoro
TTITLE16=Juokse porosein - Polyteknikkojen kuoro
TTITLE17=Kilisee, kilisee kulkunen - Kamarikuoro Melos
TTITLE18=Petteri Punakuono - Tikkurilan laulajat
TTITLE19=Valkea Joulu - Ylioppilaskunnan laulajat
EXTD=YEAR: 1994
EXTT0=
EXTT1=
EXTT2=
EXTT3=
EXTT4=
EXTT5=
EXTT6=
EXTT7=
EXTT8=
EXTT9=
EXTT10=
EXTT11=
EXTT12=
EXTT13=
EXTT14=
EXTT15=
EXTT16=
EXTT17=
EXTT18=
EXTT19=
PLAYORDER=
